<svg xmlns="http://www.w3.org/2000/svg" version="1.1" xmlns:xlink="http://www.w3.org/1999/xlink" xmlns:svgjs="http://svgjs.dev/svgjs" width="2000" height="1500" viewBox="0 0 2000 1500"><rect width="2000" height="1500" fill="#ffffff"></rect><g transform="matrix(0.75,0,0,0.75,249.88191958901507,604.0686482876713)"><svg viewBox="0 0 375 73" data-background-color="#ffffff" preserveAspectRatio="xMidYMid meet" height="389" width="2000" xmlns="http://www.w3.org/2000/svg" xmlns:xlink="http://www.w3.org/1999/xlink"><g id="tight-bounds" transform="matrix(1,0,0,1,0.029520102746232624,0.014099999999984902)"><svg viewBox="0 0 374.94095979450753 72.9718" height="72.9718" width="374.94095979450753"><g><svg viewBox="0 0 374.94095979450753 72.9718" height="72.9718" width="374.94095979450753"><g><svg viewBox="0 0 374.94095979450753 72.9718" height="72.9718" width="374.94095979450753"><g id="textblocktransform"><svg viewBox="0 0 374.94095979450753 72.9718" height="72.9718" width="374.94095979450753" id="textblock"><g><svg viewBox="0 0 374.94095979450753 72.9718" height="72.9718" width="374.94095979450753"><g><svg><g></g><g></g></svg></g><g><svg><g><svg></svg></g><g></g></svg></g><g id="text-0"><svg viewBox="0 0 374.94095979450753 72.9718" height="72.9718" width="374.94095979450753"><g transform="matrix(1,0,0,1,0,13.635900000000003)"><svg width="96.7" viewBox="4.35 -35 96.69000000000001 45.1" height="45.1" data-palette-color="url(#3272553c-58b3-430d-b347-5b2eeb5b770f)"></svg></g><g><svg xmlns="http://www.w3.org/2000/svg" xmlns:xlink="http://www.w3.org/1999/xlink" version="1.1" x="113.9282" y="0" viewBox="11.017823632605122 11.461749422187646 37.96369815853941 37.06825057781236" style="enable-background:new 0 0 60 60;" xml:space="preserve" height="72.9718" width="74.73455979450753" class="icon-dxe-0" data-fill-palette-color="accent" id="dxe-0"></svg></g><g transform="matrix(1,0,0,1,205.89095979450752,9.3609)"><svg width="169.05" viewBox="4.35 -34.7 169.04 35.35" height="35.35" data-palette-color="url(#5ff48a5f-5731-4c27-b490-c98dde5ebfbc)"></svg></g></svg></g></svg></g></svg></g></svg></g><g></g></svg></g><defs></defs><mask id="c262f8bf-e8ab-4009-b156-142ad4a79c64"><g id="SvgjsG7103"><svg viewBox="0 0 374.94095979450753 72.9718" height="72.9718" width="374.94095979450753"><g><svg viewBox="0 0 374.94095979450753 72.9718" height="72.9718" width="374.94095979450753"><g><svg viewBox="0 0 374.94095979450753 72.9718" height="72.9718" width="374.94095979450753"><g id="SvgjsG7102"><svg viewBox="0 0 374.94095979450753 72.9718" height="72.9718" width="374.94095979450753" id="SvgjsSvg7101"><g><svg viewBox="0 0 374.94095979450753 72.9718" height="72.9718" width="374.94095979450753"><g><svg><g></g><g></g></svg></g><g><svg><g><svg></svg></g><g></g></svg></g><g id="SvgjsG7100"><svg viewBox="0 0 374.94095979450753 72.9718" height="72.9718" width="374.94095979450753"><g transform="matrix(1,0,0,1,0,13.635900000000003)"><svg width="96.7" viewBox="4.35 -35 96.69000000000001 45.1" height="45.1" data-palette-color="url(#3272553c-58b3-430d-b347-5b2eeb5b770f)"><path d="M15.55-34.9L15.55-34.9Q19.8-34.9 22.3-34.13 24.8-33.35 25.93-31.4 27.05-29.45 27.05-25.9L27.05-25.9Q27.05-22.2 25.68-20.25 24.3-18.3 21.2-18L21.2-18 21.2-17.8Q25.05-17.45 26.58-15.1 28.1-12.75 28.1-8.6L28.1-8.6Q28.1-5.05 27-3.1 25.9-1.15 23.48-0.38 21.05 0.4 17.1 0.4L17.1 0.4Q14.15 0.4 12.03 0.38 9.9 0.35 8.1 0.25 6.3 0.15 4.35 0L4.35 0 5.05-3.5Q6.15-3.45 9.22-3.4 12.3-3.35 16.4-3.35L16.4-3.35Q19.15-3.35 20.73-3.83 22.3-4.3 22.98-5.6 23.65-6.9 23.65-9.35L23.65-9.35Q23.65-12.05 22.95-13.5 22.25-14.95 20.6-15.55 18.95-16.15 16.1-16.2L16.1-16.2 5-16.2 5-19.55 16.05-19.55Q18.55-19.6 20.03-20.08 21.5-20.55 22.15-21.83 22.8-23.1 22.8-25.4L22.8-25.4Q22.8-27.75 22.1-29 21.4-30.25 19.78-30.7 18.15-31.15 15.35-31.15L15.35-31.15Q12.9-31.15 10.95-31.15 9-31.15 7.53-31.13 6.05-31.1 5.05-31L5.05-31 4.35-34.5Q6.1-34.7 7.68-34.77 9.25-34.85 11.13-34.88 13-34.9 15.55-34.9ZM4.35-34.5L8.65-34.5 8.65 0 4.35 0 4.35-34.5ZM34.95-35L39.2-35 39.15-6.7Q39.15-5.1 40.02-4.28 40.9-3.45 42.5-3.45L42.5-3.45 44.85-3.45 45.35-0.2Q44.9 0 44.07 0.15 43.25 0.3 42.37 0.38 41.5 0.45 40.9 0.45L40.9 0.45Q38.2 0.45 36.57-1.15 34.95-2.75 34.95-5.75L34.95-5.75 34.95-35ZM60.05-24.95L60.05-24.95Q64.25-24.95 66.77-23.7 69.3-22.45 70.39-19.63 71.5-16.8 71.5-12.15L71.5-12.15Q71.5-7.5 70.39-4.67 69.3-1.85 66.77-0.6 64.25 0.65 60.05 0.65L60.05 0.65Q55.89 0.65 53.37-0.6 50.84-1.85 49.72-4.67 48.59-7.5 48.59-12.15L48.59-12.15Q48.59-16.8 49.72-19.63 50.84-22.45 53.37-23.7 55.89-24.95 60.05-24.95ZM60.05-21.35L60.05-21.35Q57.39-21.35 55.87-20.53 54.34-19.7 53.7-17.7 53.05-15.7 53.05-12.15L53.05-12.15Q53.05-8.6 53.7-6.6 54.34-4.6 55.87-3.78 57.39-2.95 60.05-2.95L60.05-2.95Q62.7-2.95 64.25-3.78 65.8-4.6 66.44-6.6 67.09-8.6 67.09-12.15L67.09-12.15Q67.09-15.7 66.44-17.7 65.8-19.7 64.25-20.53 62.7-21.35 60.05-21.35ZM87.79-24.95L87.79-24.95Q91.69-24.95 93.97-24.15 96.24-23.35 97.22-21.65 98.19-19.95 98.19-17.2L98.19-17.2Q98.19-14.55 97.22-12.83 96.24-11.1 93.94-10.28 91.64-9.45 87.74-9.45L87.74-9.45Q83.84-9.45 81.57-10.28 79.29-11.1 78.32-12.8 77.34-14.5 77.34-17.15L77.34-17.15Q77.34-19.9 78.32-21.63 79.29-23.35 81.59-24.15 83.89-24.95 87.79-24.95ZM87.74-21.7L87.74-21.7Q84.09-21.7 82.67-20.68 81.24-19.65 81.24-17.2L81.24-17.2Q81.24-14.8 82.67-13.75 84.09-12.7 87.74-12.7L87.74-12.7Q91.44-12.7 92.84-13.75 94.24-14.8 94.24-17.2L94.24-17.2Q94.24-19.65 92.84-20.68 91.44-21.7 87.74-21.7ZM92.84-24.35L101.04-24.35 100.79-22 94.59-21.5 92.84-24.35ZM80.89-11.05L80.89-11.05 83.34-10.7Q82.49-9.95 82.19-8.88 81.89-7.8 82.37-6.9 82.84-6 84.39-5.75L84.39-5.75 93.49-4.3Q96.94-3.8 98.29-2.15 99.64-0.5 99.64 2.55L99.64 2.55Q99.64 5.4 98.57 7.05 97.49 8.7 94.94 9.4 92.39 10.1 88.04 10.1L88.04 10.1Q84.74 10.1 82.49 9.73 80.24 9.35 78.87 8.47 77.49 7.6 76.89 6.2 76.29 4.8 76.29 2.7L76.29 2.7Q76.29 1.1 76.77 0.03 77.24-1.05 78.27-1.9 79.29-2.75 80.94-3.55L80.94-3.55 83.94-5.2 85.89-4.5 83.44-2.65Q82.44-1.9 81.77-1.18 81.09-0.45 80.77 0.38 80.44 1.2 80.44 2.35L80.44 2.35Q80.44 4.05 81.09 4.95 81.74 5.85 83.39 6.18 85.04 6.5 87.99 6.5L87.99 6.5Q90.94 6.5 92.57 6.15 94.19 5.8 94.84 4.9 95.49 4 95.49 2.35L95.49 2.35Q95.49 1.1 95.17 0.45 94.84-0.2 93.94-0.55 93.04-0.9 91.29-1.15L91.29-1.15 82.54-2.35Q80.99-2.55 80.07-3.35 79.14-4.15 78.79-5.25 78.44-6.35 78.59-7.48 78.74-8.6 79.34-9.58 79.94-10.55 80.89-11.05Z" opacity="1" transform="matrix(1,0,0,1,0,0)" fill="white" class="undefined-tk-0"></path></svg></g><g><svg xmlns="http://www.w3.org/2000/svg" xmlns:xlink="http://www.w3.org/1999/xlink" version="1.1" x="113.9282" y="0" viewBox="11.017823632605122 11.461749422187646 37.96369815853941 37.06825057781236" style="enable-background:new 0 0 60 60;" xml:space="preserve" height="72.9718" width="74.73455979450753" class="icon-dxe-0" data-fill-palette-color="accent" id="SvgjsSvg7099"><path d="M48.85 34.1L35.82 11.92A0.945 0.945 0 0 0 34.2 11.92L30 19.08 25.79 11.93A0.945 0.945 0 0 0 24.17 11.93L11.15 34.1C10.93 34.47 10.99 34.93 11.29 35.23L24.32 48.26C24.5 48.44 24.74 48.53 24.98 48.53S25.46 48.44 25.64 48.26L30 43.91 34.35 48.26C34.53 48.44 34.77 48.53 35.01 48.53S35.49 48.44 35.67 48.26L48.7 35.23C49.01 34.93 49.07 34.46 48.85 34.1M24.99 46.28L13.13 34.42 24.99 14.24 28.92 20.92 21.17 34.1C20.95 34.47 21.01 34.93 21.31 35.23L28.67 42.59zM30 22.77L36.85 34.42 30 41.27 23.15 34.42zM35.01 46.28L31.32 42.59 38.68 35.23C38.98 34.93 39.04 34.46 38.82 34.1L31.08 20.93 35.01 14.25 46.87 34.43z" fill="black"></path></svg></g><g transform="matrix(1,0,0,1,205.89095979450752,9.3609)"><svg width="169.05" viewBox="4.35 -34.7 169.04 35.35" height="35.35" data-palette-color="url(#5ff48a5f-5731-4c27-b490-c98dde5ebfbc)"><path d="M4.35-34.5L8.75-34.5 8.75 0 4.35 0 4.35-34.5ZM8.35-20.35L25.2-20.35 25.2-16.55 8.35-16.55 8.35-20.35ZM24.65-34.5L29.05-34.5 29.05 0 24.65 0 24.65-34.5ZM47.6-24.95L47.6-24.95Q51.8-24.95 54.32-23.7 56.85-22.45 57.95-19.63 59.05-16.8 59.05-12.15L59.05-12.15Q59.05-7.5 57.95-4.67 56.85-1.85 54.32-0.6 51.8 0.65 47.6 0.65L47.6 0.65Q43.45 0.65 40.92-0.6 38.4-1.85 37.27-4.67 36.15-7.5 36.15-12.15L36.15-12.15Q36.15-16.8 37.27-19.63 38.4-22.45 40.92-23.7 43.45-24.95 47.6-24.95ZM47.6-21.35L47.6-21.35Q44.95-21.35 43.42-20.53 41.9-19.7 41.25-17.7 40.6-15.7 40.6-12.15L40.6-12.15Q40.6-8.6 41.25-6.6 41.9-4.6 43.42-3.78 44.95-2.95 47.6-2.95L47.6-2.95Q50.25-2.95 51.8-3.78 53.35-4.6 54-6.6 54.65-8.6 54.65-12.15L54.65-12.15Q54.65-15.7 54-17.7 53.35-19.7 51.8-20.53 50.25-21.35 47.6-21.35ZM65.7-24.35L69-24.35 69.55-19.7 69.95-18.95 69.95 0 65.7 0 65.7-24.35ZM79.84-24.95L80.95-24.95 80.45-20.95 79.05-20.95Q76.9-20.95 74.75-20.08 72.59-19.2 69.5-17.6L69.5-17.6 69.14-20.25Q71.84-22.45 74.57-23.7 77.3-24.95 79.84-24.95L79.84-24.95ZM85.94-24.35L90.14-24.35 90.14 0 85.94 0 85.94-24.35ZM87.04-34.7L89.04-34.7Q90.34-34.7 90.34-33.4L90.34-33.4 90.34-30.55Q90.34-29.25 89.04-29.25L89.04-29.25 87.04-29.25Q85.74-29.25 85.74-30.55L85.74-30.55 85.74-33.4Q85.74-34.7 87.04-34.7L87.04-34.7ZM96.69-3.45L112.39-20.9 117.14-20.85 101.44-3.4 96.69-3.45ZM96.69-3.45L117.29-3.45 117.29 0 96.69 0 96.69-3.45ZM96.84-24.35L117.14-24.35 117.14-20.85 96.84-20.85 96.84-24.35ZM133.89-24.95L133.89-24.95Q138.09-24.95 140.61-23.7 143.14-22.45 144.24-19.63 145.34-16.8 145.34-12.15L145.34-12.15Q145.34-7.5 144.24-4.67 143.14-1.85 140.61-0.6 138.09 0.65 133.89 0.65L133.89 0.65Q129.74 0.65 127.21-0.6 124.69-1.85 123.56-4.67 122.44-7.5 122.44-12.15L122.44-12.15Q122.44-16.8 123.56-19.63 124.69-22.45 127.21-23.7 129.74-24.95 133.89-24.95ZM133.89-21.35L133.89-21.35Q131.24-21.35 129.71-20.53 128.19-19.7 127.54-17.7 126.89-15.7 126.89-12.15L126.89-12.15Q126.89-8.6 127.54-6.6 128.19-4.6 129.71-3.78 131.24-2.95 133.89-2.95L133.89-2.95Q136.54-2.95 138.09-3.78 139.64-4.6 140.29-6.6 140.94-8.6 140.94-12.15L140.94-12.15Q140.94-15.7 140.29-17.7 139.64-19.7 138.09-20.53 136.54-21.35 133.89-21.35ZM166.78-24.95L166.78-24.95Q173.39-24.95 173.39-18.25L173.39-18.25 173.39 0 169.14 0 169.14-17.05Q169.14-19.5 168.34-20.43 167.54-21.35 165.64-21.35L165.64-21.35Q163.39-21.35 161.14-20.25 158.89-19.15 155.78-17.25L155.78-17.25 155.59-20.3Q158.44-22.5 161.24-23.73 164.03-24.95 166.78-24.95ZM151.99-24.35L155.59-24.35 155.94-19.7 156.24-18.95 156.24 0 151.99 0 151.99-24.35Z" opacity="1" transform="matrix(1,0,0,1,0,0)" fill="black" class="undefined-tk-1"></path></svg></g></svg></g></svg></g></svg></g></svg></g><g></g></svg></g><defs><mask></mask></defs></svg><rect width="374.94095979450753" height="72.9718" fill="black" stroke="none" visibility="hidden"></rect></g></mask><linearGradient x1="0" x2="1" y1="0.548" y2="0.55" id="3272553c-58b3-430d-b347-5b2eeb5b770f"><stop stop-color="#ff6cab" offset="0"></stop><stop stop-color="#7366ff" offset="1"></stop></linearGradient><rect width="374.94095979450753" height="72.9718" fill="url(#3272553c-58b3-430d-b347-5b2eeb5b770f)" mask="url(#c262f8bf-e8ab-4009-b156-142ad4a79c64)" data-fill-palette-color="primary"></rect><mask id="aaad206b-94ab-45ff-a3fc-02989e9e42fd"><g id="SvgjsG7113"><svg viewBox="0 0 374.94095979450753 72.9718" height="72.9718" width="374.94095979450753"><g><svg viewBox="0 0 374.94095979450753 72.9718" height="72.9718" width="374.94095979450753"><g><svg viewBox="0 0 374.94095979450753 72.9718" height="72.9718" width="374.94095979450753"><g id="SvgjsG7112"><svg viewBox="0 0 374.94095979450753 72.9718" height="72.9718" width="374.94095979450753" id="SvgjsSvg7111"><g><svg viewBox="0 0 374.94095979450753 72.9718" height="72.9718" width="374.94095979450753"><g><svg><g></g><g></g></svg></g><g><svg><g><svg></svg></g><g></g></svg></g><g id="SvgjsG7110"><svg viewBox="0 0 374.94095979450753 72.9718" height="72.9718" width="374.94095979450753"><g transform="matrix(1,0,0,1,0,13.635900000000003)"><svg width="96.7" viewBox="4.35 -35 96.69000000000001 45.1" height="45.1" data-palette-color="url(#3272553c-58b3-430d-b347-5b2eeb5b770f)"></svg></g><g><svg xmlns="http://www.w3.org/2000/svg" xmlns:xlink="http://www.w3.org/1999/xlink" version="1.1" x="113.9282" y="0" viewBox="11.017823632605122 11.461749422187646 37.96369815853941 37.06825057781236" style="enable-background:new 0 0 60 60;" xml:space="preserve" height="72.9718" width="74.73455979450753" class="icon-dxe-0" data-fill-palette-color="accent" id="SvgjsSvg7109"><path d="M48.85 34.1L35.82 11.92A0.945 0.945 0 0 0 34.2 11.92L30 19.08 25.79 11.93A0.945 0.945 0 0 0 24.17 11.93L11.15 34.1C10.93 34.47 10.99 34.93 11.29 35.23L24.32 48.26C24.5 48.44 24.74 48.53 24.98 48.53S25.46 48.44 25.64 48.26L30 43.91 34.35 48.26C34.53 48.44 34.77 48.53 35.01 48.53S35.49 48.44 35.67 48.26L48.7 35.23C49.01 34.93 49.07 34.46 48.85 34.1M24.99 46.28L13.13 34.42 24.99 14.24 28.92 20.92 21.17 34.1C20.95 34.47 21.01 34.93 21.31 35.23L28.67 42.59zM30 22.77L36.85 34.42 30 41.27 23.15 34.42zM35.01 46.28L31.32 42.59 38.68 35.23C38.98 34.93 39.04 34.46 38.82 34.1L31.08 20.93 35.01 14.25 46.87 34.43z" fill="black"></path></svg></g><g transform="matrix(1,0,0,1,205.89095979450752,9.3609)"><svg width="169.05" viewBox="4.35 -34.7 169.04 35.35" height="35.35" data-palette-color="url(#5ff48a5f-5731-4c27-b490-c98dde5ebfbc)"><path d="M4.35-34.5L8.75-34.5 8.75 0 4.35 0 4.35-34.5ZM8.35-20.35L25.2-20.35 25.2-16.55 8.35-16.55 8.35-20.35ZM24.65-34.5L29.05-34.5 29.05 0 24.65 0 24.65-34.5ZM47.6-24.95L47.6-24.95Q51.8-24.95 54.32-23.7 56.85-22.45 57.95-19.63 59.05-16.8 59.05-12.15L59.05-12.15Q59.05-7.5 57.95-4.67 56.85-1.85 54.32-0.6 51.8 0.65 47.6 0.65L47.6 0.65Q43.45 0.65 40.92-0.6 38.4-1.85 37.27-4.67 36.15-7.5 36.15-12.15L36.15-12.15Q36.15-16.8 37.27-19.63 38.4-22.45 40.92-23.7 43.45-24.95 47.6-24.95ZM47.6-21.35L47.6-21.35Q44.95-21.35 43.42-20.53 41.9-19.7 41.25-17.7 40.6-15.7 40.6-12.15L40.6-12.15Q40.6-8.6 41.25-6.6 41.9-4.6 43.42-3.78 44.95-2.95 47.6-2.95L47.6-2.95Q50.25-2.95 51.8-3.78 53.35-4.6 54-6.6 54.65-8.6 54.65-12.15L54.65-12.15Q54.65-15.7 54-17.7 53.35-19.7 51.8-20.53 50.25-21.35 47.6-21.35ZM65.7-24.35L69-24.35 69.55-19.7 69.95-18.95 69.95 0 65.7 0 65.7-24.35ZM79.84-24.95L80.95-24.95 80.45-20.95 79.05-20.95Q76.9-20.95 74.75-20.08 72.59-19.2 69.5-17.6L69.5-17.6 69.14-20.25Q71.84-22.45 74.57-23.7 77.3-24.95 79.84-24.95L79.84-24.95ZM85.94-24.35L90.14-24.35 90.14 0 85.94 0 85.94-24.35ZM87.04-34.7L89.04-34.7Q90.34-34.7 90.34-33.4L90.34-33.4 90.34-30.55Q90.34-29.25 89.04-29.25L89.04-29.25 87.04-29.25Q85.74-29.25 85.74-30.55L85.74-30.55 85.74-33.4Q85.74-34.7 87.04-34.7L87.04-34.7ZM96.69-3.45L112.39-20.9 117.14-20.85 101.44-3.4 96.69-3.45ZM96.69-3.45L117.29-3.45 117.29 0 96.69 0 96.69-3.45ZM96.84-24.35L117.14-24.35 117.14-20.85 96.84-20.85 96.84-24.35ZM133.89-24.95L133.89-24.95Q138.09-24.95 140.61-23.7 143.14-22.45 144.24-19.63 145.34-16.8 145.34-12.15L145.34-12.15Q145.34-7.5 144.24-4.67 143.14-1.85 140.61-0.6 138.09 0.65 133.89 0.65L133.89 0.65Q129.74 0.65 127.21-0.6 124.69-1.85 123.56-4.67 122.44-7.5 122.44-12.15L122.44-12.15Q122.44-16.8 123.56-19.63 124.69-22.45 127.21-23.7 129.74-24.95 133.89-24.95ZM133.89-21.35L133.89-21.35Q131.24-21.35 129.71-20.53 128.19-19.7 127.54-17.7 126.89-15.7 126.89-12.15L126.89-12.15Q126.89-8.6 127.54-6.6 128.19-4.6 129.71-3.78 131.24-2.95 133.89-2.95L133.89-2.95Q136.54-2.95 138.09-3.78 139.64-4.6 140.29-6.6 140.94-8.6 140.94-12.15L140.94-12.15Q140.94-15.7 140.29-17.7 139.64-19.7 138.09-20.53 136.54-21.35 133.89-21.35ZM166.78-24.95L166.78-24.95Q173.39-24.95 173.39-18.25L173.39-18.25 173.39 0 169.14 0 169.14-17.05Q169.14-19.5 168.34-20.43 167.54-21.35 165.64-21.35L165.64-21.35Q163.39-21.35 161.14-20.25 158.89-19.15 155.78-17.25L155.78-17.25 155.59-20.3Q158.44-22.5 161.24-23.73 164.03-24.95 166.78-24.95ZM151.99-24.35L155.59-24.35 155.94-19.7 156.24-18.95 156.24 0 151.99 0 151.99-24.35Z" opacity="1" transform="matrix(1,0,0,1,0,0)" fill="white" class="undefined-tk-1"></path></svg></g></svg></g></svg></g></svg></g></svg></g><g></g></svg></g><defs><mask></mask></defs><mask><g id="SvgjsG7108"><svg viewBox="0 0 374.94095979450753 72.9718" height="72.9718" width="374.94095979450753"><g><svg viewBox="0 0 374.94095979450753 72.9718" height="72.9718" width="374.94095979450753"><g><svg viewBox="0 0 374.94095979450753 72.9718" height="72.9718" width="374.94095979450753"><g id="SvgjsG7107"><svg viewBox="0 0 374.94095979450753 72.9718" height="72.9718" width="374.94095979450753" id="SvgjsSvg7106"><g><svg viewBox="0 0 374.94095979450753 72.9718" height="72.9718" width="374.94095979450753"><g><svg><g></g><g></g></svg></g><g><svg><g><svg></svg></g><g></g></svg></g><g id="SvgjsG7105"><svg viewBox="0 0 374.94095979450753 72.9718" height="72.9718" width="374.94095979450753"><g transform="matrix(1,0,0,1,0,13.635900000000003)"><svg width="96.7" viewBox="4.35 -35 96.69000000000001 45.1" height="45.1" data-palette-color="url(#3272553c-58b3-430d-b347-5b2eeb5b770f)"><path d="M15.55-34.9L15.55-34.9Q19.8-34.9 22.3-34.13 24.8-33.35 25.93-31.4 27.05-29.45 27.05-25.9L27.05-25.9Q27.05-22.2 25.68-20.25 24.3-18.3 21.2-18L21.2-18 21.2-17.8Q25.05-17.45 26.58-15.1 28.1-12.75 28.1-8.6L28.1-8.6Q28.1-5.05 27-3.1 25.9-1.15 23.48-0.38 21.05 0.4 17.1 0.4L17.1 0.4Q14.15 0.4 12.03 0.38 9.9 0.35 8.1 0.25 6.3 0.15 4.35 0L4.35 0 5.05-3.5Q6.15-3.45 9.22-3.4 12.3-3.35 16.4-3.35L16.4-3.35Q19.15-3.35 20.73-3.83 22.3-4.3 22.98-5.6 23.65-6.9 23.65-9.35L23.65-9.35Q23.65-12.05 22.95-13.5 22.25-14.95 20.6-15.55 18.95-16.15 16.1-16.2L16.1-16.2 5-16.2 5-19.55 16.05-19.55Q18.55-19.6 20.03-20.08 21.5-20.55 22.15-21.83 22.8-23.1 22.8-25.4L22.8-25.4Q22.8-27.75 22.1-29 21.4-30.25 19.78-30.7 18.15-31.15 15.35-31.15L15.35-31.15Q12.9-31.15 10.95-31.15 9-31.15 7.53-31.13 6.05-31.1 5.05-31L5.05-31 4.35-34.5Q6.1-34.7 7.68-34.77 9.25-34.85 11.13-34.88 13-34.9 15.55-34.9ZM4.35-34.5L8.65-34.5 8.65 0 4.35 0 4.35-34.5ZM34.95-35L39.2-35 39.15-6.7Q39.15-5.1 40.02-4.28 40.9-3.45 42.5-3.45L42.5-3.45 44.85-3.45 45.35-0.2Q44.9 0 44.07 0.15 43.25 0.3 42.37 0.38 41.5 0.45 40.9 0.45L40.9 0.45Q38.2 0.45 36.57-1.15 34.95-2.75 34.95-5.75L34.95-5.75 34.95-35ZM60.05-24.95L60.05-24.95Q64.25-24.95 66.77-23.7 69.3-22.45 70.39-19.63 71.5-16.8 71.5-12.15L71.5-12.15Q71.5-7.5 70.39-4.67 69.3-1.85 66.77-0.6 64.25 0.65 60.05 0.65L60.05 0.65Q55.89 0.65 53.37-0.6 50.84-1.85 49.72-4.67 48.59-7.5 48.59-12.15L48.59-12.15Q48.59-16.8 49.72-19.63 50.84-22.45 53.37-23.7 55.89-24.95 60.05-24.95ZM60.05-21.35L60.05-21.35Q57.39-21.35 55.87-20.53 54.34-19.7 53.7-17.7 53.05-15.7 53.05-12.15L53.05-12.15Q53.05-8.6 53.7-6.6 54.34-4.6 55.87-3.78 57.39-2.95 60.05-2.95L60.05-2.95Q62.7-2.95 64.25-3.78 65.8-4.6 66.44-6.6 67.09-8.6 67.09-12.15L67.09-12.15Q67.09-15.7 66.44-17.7 65.8-19.7 64.25-20.53 62.7-21.35 60.05-21.35ZM87.79-24.95L87.79-24.95Q91.69-24.95 93.97-24.15 96.24-23.35 97.22-21.65 98.19-19.95 98.19-17.2L98.19-17.2Q98.19-14.55 97.22-12.83 96.24-11.1 93.94-10.28 91.64-9.45 87.74-9.45L87.74-9.45Q83.84-9.45 81.57-10.28 79.29-11.1 78.32-12.8 77.34-14.5 77.34-17.15L77.34-17.15Q77.34-19.9 78.32-21.63 79.29-23.35 81.59-24.15 83.89-24.95 87.79-24.95ZM87.74-21.7L87.74-21.7Q84.09-21.7 82.67-20.68 81.24-19.65 81.24-17.2L81.24-17.2Q81.24-14.8 82.67-13.75 84.09-12.7 87.74-12.7L87.74-12.7Q91.44-12.7 92.84-13.75 94.24-14.8 94.24-17.2L94.24-17.2Q94.24-19.65 92.84-20.68 91.44-21.7 87.74-21.7ZM92.84-24.35L101.04-24.35 100.79-22 94.59-21.5 92.84-24.35ZM80.89-11.05L80.89-11.05 83.34-10.7Q82.49-9.95 82.19-8.88 81.89-7.8 82.37-6.9 82.84-6 84.39-5.75L84.39-5.75 93.49-4.3Q96.94-3.8 98.29-2.15 99.64-0.5 99.64 2.55L99.64 2.55Q99.64 5.4 98.57 7.05 97.49 8.7 94.94 9.4 92.39 10.1 88.04 10.1L88.04 10.1Q84.74 10.1 82.49 9.73 80.24 9.35 78.87 8.47 77.49 7.6 76.89 6.2 76.29 4.8 76.29 2.7L76.29 2.7Q76.29 1.1 76.77 0.03 77.24-1.05 78.27-1.9 79.29-2.75 80.94-3.55L80.94-3.55 83.94-5.2 85.89-4.5 83.44-2.65Q82.44-1.9 81.77-1.18 81.09-0.45 80.77 0.38 80.44 1.2 80.44 2.35L80.44 2.35Q80.44 4.05 81.09 4.95 81.74 5.85 83.39 6.18 85.04 6.5 87.99 6.5L87.99 6.5Q90.94 6.5 92.57 6.15 94.19 5.8 94.84 4.9 95.49 4 95.49 2.35L95.49 2.35Q95.49 1.1 95.17 0.45 94.84-0.2 93.94-0.55 93.04-0.9 91.29-1.15L91.29-1.15 82.54-2.35Q80.99-2.55 80.07-3.35 79.14-4.15 78.79-5.25 78.44-6.35 78.59-7.48 78.74-8.6 79.34-9.58 79.94-10.55 80.89-11.05Z" opacity="1" transform="matrix(1,0,0,1,0,0)" fill="black" class="undefined-tk-0"></path></svg></g><g><svg xmlns="http://www.w3.org/2000/svg" xmlns:xlink="http://www.w3.org/1999/xlink" version="1.1" x="113.9282" y="0" viewBox="11.017823632605122 11.461749422187646 37.96369815853941 37.06825057781236" style="enable-background:new 0 0 60 60;" xml:space="preserve" height="72.9718" width="74.73455979450753" class="icon-dxe-0" data-fill-palette-color="accent" id="SvgjsSvg7104"><path d="M48.85 34.1L35.82 11.92A0.945 0.945 0 0 0 34.2 11.92L30 19.08 25.79 11.93A0.945 0.945 0 0 0 24.17 11.93L11.15 34.1C10.93 34.47 10.99 34.93 11.29 35.23L24.32 48.26C24.5 48.44 24.74 48.53 24.98 48.53S25.46 48.44 25.64 48.26L30 43.91 34.35 48.26C34.53 48.44 34.77 48.53 35.01 48.53S35.49 48.44 35.67 48.26L48.7 35.23C49.01 34.93 49.07 34.46 48.85 34.1M24.99 46.28L13.13 34.42 24.99 14.24 28.92 20.92 21.17 34.1C20.95 34.47 21.01 34.93 21.31 35.23L28.67 42.59zM30 22.77L36.85 34.42 30 41.27 23.15 34.42zM35.01 46.28L31.32 42.59 38.68 35.23C38.98 34.93 39.04 34.46 38.82 34.1L31.08 20.93 35.01 14.25 46.87 34.43z" fill="black"></path></svg></g><g transform="matrix(1,0,0,1,205.89095979450752,9.3609)"><svg width="169.05" viewBox="4.35 -34.7 169.04 35.35" height="35.35" data-palette-color="url(#5ff48a5f-5731-4c27-b490-c98dde5ebfbc)"><path d="M4.35-34.5L8.75-34.5 8.75 0 4.35 0 4.35-34.5ZM8.35-20.35L25.2-20.35 25.2-16.55 8.35-16.55 8.35-20.35ZM24.65-34.5L29.05-34.5 29.05 0 24.65 0 24.65-34.5ZM47.6-24.95L47.6-24.95Q51.8-24.95 54.32-23.7 56.85-22.45 57.95-19.63 59.05-16.8 59.05-12.15L59.05-12.15Q59.05-7.5 57.95-4.67 56.85-1.85 54.32-0.6 51.8 0.65 47.6 0.65L47.6 0.65Q43.45 0.65 40.92-0.6 38.4-1.85 37.27-4.67 36.15-7.5 36.15-12.15L36.15-12.15Q36.15-16.8 37.27-19.63 38.4-22.45 40.92-23.7 43.45-24.95 47.6-24.95ZM47.6-21.35L47.6-21.35Q44.95-21.35 43.42-20.53 41.9-19.7 41.25-17.7 40.6-15.7 40.6-12.15L40.6-12.15Q40.6-8.6 41.25-6.6 41.9-4.6 43.42-3.78 44.95-2.95 47.6-2.95L47.6-2.95Q50.25-2.95 51.8-3.78 53.35-4.6 54-6.6 54.65-8.6 54.65-12.15L54.65-12.15Q54.65-15.7 54-17.7 53.35-19.7 51.8-20.53 50.25-21.35 47.6-21.35ZM65.7-24.35L69-24.35 69.55-19.7 69.95-18.95 69.95 0 65.7 0 65.7-24.35ZM79.84-24.95L80.95-24.95 80.45-20.95 79.05-20.95Q76.9-20.95 74.75-20.08 72.59-19.2 69.5-17.6L69.5-17.6 69.14-20.25Q71.84-22.45 74.57-23.7 77.3-24.95 79.84-24.95L79.84-24.95ZM85.94-24.35L90.14-24.35 90.14 0 85.94 0 85.94-24.35ZM87.04-34.7L89.04-34.7Q90.34-34.7 90.34-33.4L90.34-33.4 90.34-30.55Q90.34-29.25 89.04-29.25L89.04-29.25 87.04-29.25Q85.74-29.25 85.74-30.55L85.74-30.55 85.74-33.4Q85.74-34.7 87.04-34.7L87.04-34.7ZM96.69-3.45L112.39-20.9 117.14-20.85 101.44-3.4 96.69-3.45ZM96.69-3.45L117.29-3.45 117.29 0 96.69 0 96.69-3.45ZM96.84-24.35L117.14-24.35 117.14-20.85 96.84-20.85 96.84-24.35ZM133.89-24.95L133.89-24.95Q138.09-24.95 140.61-23.7 143.14-22.45 144.24-19.63 145.34-16.8 145.34-12.15L145.34-12.15Q145.34-7.5 144.24-4.67 143.14-1.85 140.61-0.6 138.09 0.65 133.89 0.65L133.89 0.65Q129.74 0.65 127.21-0.6 124.69-1.85 123.56-4.67 122.44-7.5 122.44-12.15L122.44-12.15Q122.44-16.8 123.56-19.63 124.69-22.45 127.21-23.7 129.74-24.95 133.89-24.95ZM133.89-21.35L133.89-21.35Q131.24-21.35 129.71-20.53 128.19-19.7 127.54-17.7 126.89-15.7 126.89-12.15L126.89-12.15Q126.89-8.6 127.54-6.6 128.19-4.6 129.71-3.78 131.24-2.95 133.89-2.95L133.89-2.95Q136.54-2.95 138.09-3.78 139.64-4.6 140.29-6.6 140.94-8.6 140.94-12.15L140.94-12.15Q140.94-15.7 140.29-17.7 139.64-19.7 138.09-20.53 136.54-21.35 133.89-21.35ZM166.78-24.95L166.78-24.95Q173.39-24.95 173.39-18.25L173.39-18.25 173.39 0 169.14 0 169.14-17.05Q169.14-19.5 168.34-20.43 167.54-21.35 165.64-21.35L165.64-21.35Q163.39-21.35 161.14-20.25 158.89-19.15 155.78-17.25L155.78-17.25 155.59-20.3Q158.44-22.5 161.24-23.73 164.03-24.95 166.78-24.95ZM151.99-24.35L155.59-24.35 155.94-19.7 156.24-18.95 156.24 0 151.99 0 151.99-24.35Z" opacity="1" transform="matrix(1,0,0,1,0,0)" fill="black" class="undefined-tk-1"></path></svg></g></svg></g></svg></g></svg></g></svg></g><g></g></svg></g><defs><mask></mask></defs></svg><rect width="374.94095979450753" height="72.9718" fill="black" stroke="none" visibility="hidden"></rect></g></mask></svg><rect width="374.94095979450753" height="72.9718" fill="black" stroke="none" visibility="hidden"></rect></g></mask><linearGradient x1="0" x2="1" y1="0.548" y2="0.55" id="5ff48a5f-5731-4c27-b490-c98dde5ebfbc"><stop stop-color="#ff6cab" offset="0"></stop><stop stop-color="#7366ff" offset="1"></stop></linearGradient><rect width="374.94095979450753" height="72.9718" fill="url(#5ff48a5f-5731-4c27-b490-c98dde5ebfbc)" mask="url(#aaad206b-94ab-45ff-a3fc-02989e9e42fd)" data-fill-palette-color="secondary"></rect><mask id="89f61c8b-0bfb-4ef2-825f-ff9d7c142e16"><g id="SvgjsG7133"><svg viewBox="0 0 374.94095979450753 72.9718" height="72.9718" width="374.94095979450753"><g><svg viewBox="0 0 374.94095979450753 72.9718" height="72.9718" width="374.94095979450753"><g><svg viewBox="0 0 374.94095979450753 72.9718" height="72.9718" width="374.94095979450753"><g id="SvgjsG7132"><svg viewBox="0 0 374.94095979450753 72.9718" height="72.9718" width="374.94095979450753" id="SvgjsSvg7131"><g><svg viewBox="0 0 374.94095979450753 72.9718" height="72.9718" width="374.94095979450753"><g><svg><g></g><g></g></svg></g><g><svg><g><svg></svg></g><g></g></svg></g><g id="SvgjsG7130"><svg viewBox="0 0 374.94095979450753 72.9718" height="72.9718" width="374.94095979450753"><g transform="matrix(1,0,0,1,0,13.635900000000003)"><svg width="96.7" viewBox="4.35 -35 96.69000000000001 45.1" height="45.1" data-palette-color="url(#3272553c-58b3-430d-b347-5b2eeb5b770f)"></svg></g><g><svg xmlns="http://www.w3.org/2000/svg" xmlns:xlink="http://www.w3.org/1999/xlink" version="1.1" x="113.9282" y="0" viewBox="11.017823632605122 11.461749422187646 37.96369815853941 37.06825057781236" style="enable-background:new 0 0 60 60;" xml:space="preserve" height="72.9718" width="74.73455979450753" class="icon-dxe-0" data-fill-palette-color="accent" id="SvgjsSvg7129"><path d="M48.85 34.1L35.82 11.92A0.945 0.945 0 0 0 34.2 11.92L30 19.08 25.79 11.93A0.945 0.945 0 0 0 24.17 11.93L11.15 34.1C10.93 34.47 10.99 34.93 11.29 35.23L24.32 48.26C24.5 48.44 24.74 48.53 24.98 48.53S25.46 48.44 25.64 48.26L30 43.91 34.35 48.26C34.53 48.44 34.77 48.53 35.01 48.53S35.49 48.44 35.67 48.26L48.7 35.23C49.01 34.93 49.07 34.46 48.85 34.1M24.99 46.28L13.13 34.42 24.99 14.24 28.92 20.92 21.17 34.1C20.95 34.47 21.01 34.93 21.31 35.23L28.67 42.59zM30 22.77L36.85 34.42 30 41.27 23.15 34.42zM35.01 46.28L31.32 42.59 38.68 35.23C38.98 34.93 39.04 34.46 38.82 34.1L31.08 20.93 35.01 14.25 46.87 34.43z" fill="white"></path></svg></g><g transform="matrix(1,0,0,1,205.89095979450752,9.3609)"><svg width="169.05" viewBox="4.35 -34.7 169.04 35.35" height="35.35" data-palette-color="url(#5ff48a5f-5731-4c27-b490-c98dde5ebfbc)"></svg></g></svg></g></svg></g></svg></g></svg></g><g></g></svg></g><defs><mask></mask></defs><mask><g id="SvgjsG7128"><svg viewBox="0 0 374.94095979450753 72.9718" height="72.9718" width="374.94095979450753"><g><svg viewBox="0 0 374.94095979450753 72.9718" height="72.9718" width="374.94095979450753"><g><svg viewBox="0 0 374.94095979450753 72.9718" height="72.9718" width="374.94095979450753"><g id="SvgjsG7127"><svg viewBox="0 0 374.94095979450753 72.9718" height="72.9718" width="374.94095979450753" id="SvgjsSvg7126"><g><svg viewBox="0 0 374.94095979450753 72.9718" height="72.9718" width="374.94095979450753"><g><svg><g></g><g></g></svg></g><g><svg><g><svg></svg></g><g></g></svg></g><g id="SvgjsG7125"><svg viewBox="0 0 374.94095979450753 72.9718" height="72.9718" width="374.94095979450753"><g transform="matrix(1,0,0,1,0,13.635900000000003)"><svg width="96.7" viewBox="4.35 -35 96.69000000000001 45.1" height="45.1" data-palette-color="url(#3272553c-58b3-430d-b347-5b2eeb5b770f)"><path d="M15.55-34.9L15.55-34.9Q19.8-34.9 22.3-34.13 24.8-33.35 25.93-31.4 27.05-29.45 27.05-25.9L27.05-25.9Q27.05-22.2 25.68-20.25 24.3-18.3 21.2-18L21.2-18 21.2-17.8Q25.05-17.45 26.58-15.1 28.1-12.75 28.1-8.6L28.1-8.6Q28.1-5.05 27-3.1 25.9-1.15 23.48-0.38 21.05 0.4 17.1 0.4L17.1 0.4Q14.15 0.4 12.03 0.38 9.9 0.35 8.1 0.25 6.3 0.15 4.35 0L4.35 0 5.05-3.5Q6.15-3.45 9.22-3.4 12.3-3.35 16.4-3.35L16.4-3.35Q19.15-3.35 20.73-3.83 22.3-4.3 22.98-5.6 23.65-6.9 23.65-9.35L23.65-9.35Q23.65-12.05 22.95-13.5 22.25-14.95 20.6-15.55 18.95-16.15 16.1-16.2L16.1-16.2 5-16.2 5-19.55 16.05-19.55Q18.55-19.6 20.03-20.08 21.5-20.55 22.15-21.83 22.8-23.1 22.8-25.4L22.8-25.4Q22.8-27.75 22.1-29 21.4-30.25 19.78-30.7 18.15-31.15 15.35-31.15L15.35-31.15Q12.9-31.15 10.95-31.15 9-31.15 7.53-31.13 6.05-31.1 5.05-31L5.05-31 4.35-34.5Q6.1-34.7 7.68-34.77 9.25-34.85 11.13-34.88 13-34.9 15.55-34.9ZM4.35-34.5L8.65-34.5 8.65 0 4.35 0 4.35-34.5ZM34.95-35L39.2-35 39.15-6.7Q39.15-5.1 40.02-4.28 40.9-3.45 42.5-3.45L42.5-3.45 44.85-3.45 45.35-0.2Q44.9 0 44.07 0.15 43.25 0.3 42.37 0.38 41.5 0.45 40.9 0.45L40.9 0.45Q38.2 0.45 36.57-1.15 34.95-2.75 34.95-5.75L34.95-5.75 34.95-35ZM60.05-24.95L60.05-24.95Q64.25-24.95 66.77-23.7 69.3-22.45 70.39-19.63 71.5-16.8 71.5-12.15L71.5-12.15Q71.5-7.5 70.39-4.67 69.3-1.85 66.77-0.6 64.25 0.65 60.05 0.65L60.05 0.65Q55.89 0.65 53.37-0.6 50.84-1.85 49.72-4.67 48.59-7.5 48.59-12.15L48.59-12.15Q48.59-16.8 49.72-19.63 50.84-22.45 53.37-23.7 55.89-24.95 60.05-24.95ZM60.05-21.35L60.05-21.35Q57.39-21.35 55.87-20.53 54.34-19.7 53.7-17.7 53.05-15.7 53.05-12.15L53.05-12.15Q53.05-8.6 53.7-6.6 54.34-4.6 55.87-3.78 57.39-2.95 60.05-2.95L60.05-2.95Q62.7-2.95 64.25-3.78 65.8-4.6 66.44-6.6 67.09-8.6 67.09-12.15L67.09-12.15Q67.09-15.7 66.44-17.7 65.8-19.7 64.25-20.53 62.7-21.35 60.05-21.35ZM87.79-24.95L87.79-24.95Q91.69-24.95 93.97-24.15 96.24-23.35 97.22-21.65 98.19-19.95 98.19-17.2L98.19-17.2Q98.19-14.55 97.22-12.83 96.24-11.1 93.94-10.28 91.64-9.45 87.74-9.45L87.74-9.45Q83.84-9.45 81.57-10.28 79.29-11.1 78.32-12.8 77.34-14.5 77.34-17.15L77.34-17.15Q77.34-19.9 78.32-21.63 79.29-23.35 81.59-24.15 83.89-24.95 87.79-24.95ZM87.74-21.7L87.74-21.7Q84.09-21.7 82.67-20.68 81.24-19.65 81.24-17.2L81.24-17.2Q81.24-14.8 82.67-13.75 84.09-12.7 87.74-12.7L87.74-12.7Q91.44-12.7 92.84-13.75 94.24-14.8 94.24-17.2L94.24-17.2Q94.24-19.65 92.84-20.68 91.44-21.7 87.74-21.7ZM92.84-24.35L101.04-24.35 100.79-22 94.59-21.5 92.84-24.35ZM80.89-11.05L80.89-11.05 83.34-10.7Q82.49-9.95 82.19-8.88 81.89-7.8 82.37-6.9 82.84-6 84.39-5.75L84.39-5.75 93.49-4.3Q96.94-3.8 98.29-2.15 99.64-0.5 99.64 2.55L99.64 2.55Q99.64 5.4 98.57 7.05 97.49 8.7 94.94 9.4 92.39 10.1 88.04 10.1L88.04 10.1Q84.74 10.1 82.49 9.73 80.24 9.35 78.87 8.47 77.49 7.6 76.89 6.2 76.29 4.8 76.29 2.7L76.29 2.7Q76.29 1.1 76.77 0.03 77.24-1.05 78.27-1.9 79.29-2.75 80.94-3.55L80.94-3.55 83.94-5.2 85.89-4.5 83.44-2.65Q82.44-1.9 81.77-1.18 81.09-0.45 80.77 0.38 80.44 1.2 80.44 2.35L80.44 2.35Q80.44 4.05 81.09 4.95 81.74 5.85 83.39 6.18 85.04 6.5 87.99 6.5L87.99 6.5Q90.94 6.5 92.57 6.15 94.19 5.8 94.84 4.9 95.49 4 95.49 2.35L95.49 2.35Q95.49 1.1 95.17 0.45 94.84-0.2 93.94-0.55 93.04-0.9 91.29-1.15L91.29-1.15 82.54-2.35Q80.99-2.55 80.07-3.35 79.14-4.15 78.79-5.25 78.44-6.35 78.59-7.48 78.74-8.6 79.34-9.58 79.94-10.55 80.89-11.05Z" opacity="1" transform="matrix(1,0,0,1,0,0)" fill="black" class="undefined-tk-0"></path></svg></g><g><svg xmlns="http://www.w3.org/2000/svg" xmlns:xlink="http://www.w3.org/1999/xlink" version="1.1" x="113.9282" y="0" viewBox="11.017823632605122 11.461749422187646 37.96369815853941 37.06825057781236" style="enable-background:new 0 0 60 60;" xml:space="preserve" height="72.9718" width="74.73455979450753" class="icon-dxe-0" data-fill-palette-color="accent" id="SvgjsSvg7124"><path d="M48.85 34.1L35.82 11.92A0.945 0.945 0 0 0 34.2 11.92L30 19.08 25.79 11.93A0.945 0.945 0 0 0 24.17 11.93L11.15 34.1C10.93 34.47 10.99 34.93 11.29 35.23L24.32 48.26C24.5 48.44 24.74 48.53 24.98 48.53S25.46 48.44 25.64 48.26L30 43.91 34.35 48.26C34.53 48.44 34.77 48.53 35.01 48.53S35.49 48.44 35.67 48.26L48.7 35.23C49.01 34.93 49.07 34.46 48.85 34.1M24.99 46.28L13.13 34.42 24.99 14.24 28.92 20.92 21.17 34.1C20.95 34.47 21.01 34.93 21.31 35.23L28.67 42.59zM30 22.77L36.85 34.42 30 41.27 23.15 34.42zM35.01 46.28L31.32 42.59 38.68 35.23C38.98 34.93 39.04 34.46 38.82 34.1L31.08 20.93 35.01 14.25 46.87 34.43z" fill="black"></path></svg></g><g transform="matrix(1,0,0,1,205.89095979450752,9.3609)"><svg width="169.05" viewBox="4.35 -34.7 169.04 35.35" height="35.35" data-palette-color="url(#5ff48a5f-5731-4c27-b490-c98dde5ebfbc)"><path d="M4.35-34.5L8.75-34.5 8.75 0 4.35 0 4.35-34.5ZM8.35-20.35L25.2-20.35 25.2-16.55 8.35-16.55 8.35-20.35ZM24.65-34.5L29.05-34.5 29.05 0 24.65 0 24.65-34.5ZM47.6-24.95L47.6-24.95Q51.8-24.95 54.32-23.7 56.85-22.45 57.95-19.63 59.05-16.8 59.05-12.15L59.05-12.15Q59.05-7.5 57.95-4.67 56.85-1.85 54.32-0.6 51.8 0.65 47.6 0.65L47.6 0.65Q43.45 0.65 40.92-0.6 38.4-1.85 37.27-4.67 36.15-7.5 36.15-12.15L36.15-12.15Q36.15-16.8 37.27-19.63 38.4-22.45 40.92-23.7 43.45-24.95 47.6-24.95ZM47.6-21.35L47.6-21.35Q44.95-21.35 43.42-20.53 41.9-19.7 41.25-17.7 40.6-15.7 40.6-12.15L40.6-12.15Q40.6-8.6 41.25-6.6 41.9-4.6 43.42-3.78 44.95-2.95 47.6-2.95L47.6-2.95Q50.25-2.95 51.8-3.78 53.35-4.6 54-6.6 54.65-8.6 54.65-12.15L54.65-12.15Q54.65-15.7 54-17.7 53.35-19.7 51.8-20.53 50.25-21.35 47.6-21.35ZM65.7-24.35L69-24.35 69.55-19.7 69.95-18.95 69.95 0 65.7 0 65.7-24.35ZM79.84-24.95L80.95-24.95 80.45-20.95 79.05-20.95Q76.9-20.95 74.75-20.08 72.59-19.2 69.5-17.6L69.5-17.6 69.14-20.25Q71.84-22.45 74.57-23.7 77.3-24.95 79.84-24.95L79.84-24.95ZM85.94-24.35L90.14-24.35 90.14 0 85.94 0 85.94-24.35ZM87.04-34.7L89.04-34.7Q90.34-34.7 90.34-33.4L90.34-33.4 90.34-30.55Q90.34-29.25 89.04-29.25L89.04-29.25 87.04-29.25Q85.74-29.25 85.74-30.55L85.74-30.55 85.74-33.4Q85.74-34.7 87.04-34.7L87.04-34.7ZM96.69-3.45L112.39-20.9 117.14-20.85 101.44-3.4 96.69-3.45ZM96.69-3.45L117.29-3.45 117.29 0 96.69 0 96.69-3.45ZM96.84-24.35L117.14-24.35 117.14-20.85 96.84-20.85 96.84-24.35ZM133.89-24.95L133.89-24.95Q138.09-24.95 140.61-23.7 143.14-22.45 144.24-19.63 145.34-16.8 145.34-12.15L145.34-12.15Q145.34-7.5 144.24-4.67 143.14-1.85 140.61-0.6 138.09 0.65 133.89 0.65L133.89 0.65Q129.74 0.65 127.21-0.6 124.69-1.85 123.56-4.67 122.44-7.5 122.44-12.15L122.44-12.15Q122.44-16.8 123.56-19.63 124.69-22.45 127.21-23.7 129.74-24.95 133.89-24.95ZM133.89-21.35L133.89-21.35Q131.24-21.35 129.71-20.53 128.19-19.7 127.54-17.7 126.89-15.7 126.89-12.15L126.89-12.15Q126.89-8.6 127.54-6.6 128.19-4.6 129.71-3.78 131.24-2.95 133.89-2.95L133.89-2.95Q136.54-2.95 138.09-3.78 139.64-4.6 140.29-6.6 140.94-8.6 140.94-12.15L140.94-12.15Q140.94-15.7 140.29-17.7 139.64-19.7 138.09-20.53 136.54-21.35 133.89-21.35ZM166.78-24.95L166.78-24.95Q173.39-24.95 173.39-18.25L173.39-18.25 173.39 0 169.14 0 169.14-17.05Q169.14-19.5 168.34-20.43 167.54-21.35 165.64-21.35L165.64-21.35Q163.39-21.35 161.14-20.25 158.89-19.15 155.78-17.25L155.78-17.25 155.59-20.3Q158.44-22.5 161.24-23.73 164.03-24.95 166.78-24.95ZM151.99-24.35L155.59-24.35 155.94-19.7 156.24-18.95 156.24 0 151.99 0 151.99-24.35Z" opacity="1" transform="matrix(1,0,0,1,0,0)" fill="black" class="undefined-tk-1"></path></svg></g></svg></g></svg></g></svg></g></svg></g><g></g></svg></g><defs><mask></mask></defs></svg><rect width="374.94095979450753" height="72.9718" fill="black" stroke="none" visibility="hidden"></rect></g></mask><mask><g id="SvgjsG7123"><svg viewBox="0 0 374.94095979450753 72.9718" height="72.9718" width="374.94095979450753"><g><svg viewBox="0 0 374.94095979450753 72.9718" height="72.9718" width="374.94095979450753"><g><svg viewBox="0 0 374.94095979450753 72.9718" height="72.9718" width="374.94095979450753"><g id="SvgjsG7122"><svg viewBox="0 0 374.94095979450753 72.9718" height="72.9718" width="374.94095979450753" id="SvgjsSvg7121"><g><svg viewBox="0 0 374.94095979450753 72.9718" height="72.9718" width="374.94095979450753"><g><svg><g></g><g></g></svg></g><g><svg><g><svg></svg></g><g></g></svg></g><g id="SvgjsG7120"><svg viewBox="0 0 374.94095979450753 72.9718" height="72.9718" width="374.94095979450753"><g transform="matrix(1,0,0,1,0,13.635900000000003)"><svg width="96.7" viewBox="4.35 -35 96.69000000000001 45.1" height="45.1" data-palette-color="url(#3272553c-58b3-430d-b347-5b2eeb5b770f)"></svg></g><g><svg xmlns="http://www.w3.org/2000/svg" xmlns:xlink="http://www.w3.org/1999/xlink" version="1.1" x="113.9282" y="0" viewBox="11.017823632605122 11.461749422187646 37.96369815853941 37.06825057781236" style="enable-background:new 0 0 60 60;" xml:space="preserve" height="72.9718" width="74.73455979450753" class="icon-dxe-0" data-fill-palette-color="accent" id="SvgjsSvg7119"><path d="M48.85 34.1L35.82 11.92A0.945 0.945 0 0 0 34.2 11.92L30 19.08 25.79 11.93A0.945 0.945 0 0 0 24.17 11.93L11.15 34.1C10.93 34.47 10.99 34.93 11.29 35.23L24.32 48.26C24.5 48.44 24.74 48.53 24.98 48.53S25.46 48.44 25.64 48.26L30 43.91 34.35 48.26C34.53 48.44 34.77 48.53 35.01 48.53S35.49 48.44 35.67 48.26L48.7 35.23C49.01 34.93 49.07 34.46 48.85 34.1M24.99 46.28L13.13 34.42 24.99 14.24 28.92 20.92 21.17 34.1C20.95 34.47 21.01 34.93 21.31 35.23L28.67 42.59zM30 22.77L36.85 34.42 30 41.27 23.15 34.42zM35.01 46.28L31.32 42.59 38.68 35.23C38.98 34.93 39.04 34.46 38.82 34.1L31.08 20.93 35.01 14.25 46.87 34.43z" fill="black"></path></svg></g><g transform="matrix(1,0,0,1,205.89095979450752,9.3609)"><svg width="169.05" viewBox="4.35 -34.7 169.04 35.35" height="35.35" data-palette-color="url(#5ff48a5f-5731-4c27-b490-c98dde5ebfbc)"><path d="M4.35-34.5L8.75-34.5 8.75 0 4.35 0 4.35-34.5ZM8.35-20.35L25.2-20.35 25.2-16.55 8.35-16.55 8.35-20.35ZM24.65-34.5L29.05-34.5 29.05 0 24.65 0 24.65-34.5ZM47.6-24.95L47.6-24.95Q51.8-24.95 54.32-23.7 56.85-22.45 57.95-19.63 59.05-16.8 59.05-12.15L59.05-12.15Q59.05-7.5 57.95-4.67 56.85-1.85 54.32-0.6 51.8 0.65 47.6 0.65L47.6 0.65Q43.45 0.65 40.92-0.6 38.4-1.85 37.27-4.67 36.15-7.5 36.15-12.15L36.15-12.15Q36.15-16.8 37.27-19.63 38.4-22.45 40.92-23.7 43.45-24.95 47.6-24.95ZM47.6-21.35L47.6-21.35Q44.95-21.35 43.42-20.53 41.9-19.7 41.25-17.7 40.6-15.7 40.6-12.15L40.6-12.15Q40.6-8.6 41.25-6.6 41.9-4.6 43.42-3.78 44.95-2.95 47.6-2.95L47.6-2.95Q50.25-2.95 51.8-3.78 53.35-4.6 54-6.6 54.65-8.6 54.65-12.15L54.65-12.15Q54.65-15.7 54-17.7 53.35-19.7 51.8-20.53 50.25-21.35 47.6-21.35ZM65.7-24.35L69-24.35 69.55-19.7 69.95-18.95 69.95 0 65.7 0 65.7-24.35ZM79.84-24.95L80.95-24.95 80.45-20.95 79.05-20.95Q76.9-20.95 74.75-20.08 72.59-19.2 69.5-17.6L69.5-17.6 69.14-20.25Q71.84-22.45 74.57-23.7 77.3-24.95 79.84-24.95L79.84-24.95ZM85.94-24.35L90.14-24.35 90.14 0 85.94 0 85.94-24.35ZM87.04-34.7L89.04-34.7Q90.34-34.7 90.34-33.4L90.34-33.4 90.34-30.55Q90.34-29.25 89.04-29.25L89.04-29.25 87.04-29.25Q85.74-29.25 85.74-30.55L85.74-30.55 85.74-33.4Q85.74-34.7 87.04-34.7L87.04-34.7ZM96.69-3.45L112.39-20.9 117.14-20.85 101.44-3.4 96.69-3.45ZM96.69-3.45L117.29-3.45 117.29 0 96.69 0 96.69-3.45ZM96.84-24.35L117.14-24.35 117.14-20.85 96.84-20.85 96.84-24.35ZM133.89-24.95L133.89-24.95Q138.09-24.95 140.61-23.7 143.14-22.45 144.24-19.63 145.34-16.8 145.34-12.15L145.34-12.15Q145.34-7.5 144.24-4.67 143.14-1.85 140.61-0.6 138.09 0.65 133.89 0.65L133.89 0.65Q129.74 0.65 127.21-0.6 124.69-1.85 123.56-4.67 122.44-7.5 122.44-12.15L122.44-12.15Q122.44-16.8 123.56-19.63 124.69-22.45 127.21-23.7 129.74-24.95 133.89-24.95ZM133.89-21.35L133.89-21.35Q131.24-21.35 129.71-20.53 128.19-19.7 127.54-17.7 126.89-15.7 126.89-12.15L126.89-12.15Q126.89-8.6 127.54-6.6 128.19-4.6 129.71-3.78 131.24-2.95 133.89-2.95L133.89-2.95Q136.54-2.95 138.09-3.78 139.64-4.6 140.29-6.6 140.94-8.6 140.94-12.15L140.94-12.15Q140.94-15.7 140.29-17.7 139.64-19.7 138.09-20.53 136.54-21.35 133.89-21.35ZM166.78-24.95L166.78-24.95Q173.39-24.95 173.39-18.25L173.39-18.25 173.39 0 169.14 0 169.14-17.05Q169.14-19.5 168.34-20.43 167.54-21.35 165.64-21.35L165.64-21.35Q163.39-21.35 161.14-20.25 158.89-19.15 155.78-17.25L155.78-17.25 155.59-20.3Q158.44-22.5 161.24-23.73 164.03-24.95 166.78-24.95ZM151.99-24.35L155.59-24.35 155.94-19.7 156.24-18.95 156.24 0 151.99 0 151.99-24.35Z" opacity="1" transform="matrix(1,0,0,1,0,0)" fill="black" class="undefined-tk-1"></path></svg></g></svg></g></svg></g></svg></g></svg></g><g></g></svg></g><defs><mask></mask></defs><mask><g id="SvgjsG7118"><svg viewBox="0 0 374.94095979450753 72.9718" height="72.9718" width="374.94095979450753"><g><svg viewBox="0 0 374.94095979450753 72.9718" height="72.9718" width="374.94095979450753"><g><svg viewBox="0 0 374.94095979450753 72.9718" height="72.9718" width="374.94095979450753"><g id="SvgjsG7117"><svg viewBox="0 0 374.94095979450753 72.9718" height="72.9718" width="374.94095979450753" id="SvgjsSvg7116"><g><svg viewBox="0 0 374.94095979450753 72.9718" height="72.9718" width="374.94095979450753"><g><svg><g></g><g></g></svg></g><g><svg><g><svg></svg></g><g></g></svg></g><g id="SvgjsG7115"><svg viewBox="0 0 374.94095979450753 72.9718" height="72.9718" width="374.94095979450753"><g transform="matrix(1,0,0,1,0,13.635900000000003)"><svg width="96.7" viewBox="4.35 -35 96.69000000000001 45.1" height="45.1" data-palette-color="url(#3272553c-58b3-430d-b347-5b2eeb5b770f)"><path d="M15.55-34.9L15.55-34.9Q19.8-34.9 22.3-34.13 24.8-33.35 25.93-31.4 27.05-29.45 27.05-25.9L27.05-25.9Q27.05-22.2 25.68-20.25 24.3-18.3 21.2-18L21.2-18 21.2-17.8Q25.05-17.45 26.58-15.1 28.1-12.75 28.1-8.6L28.1-8.6Q28.1-5.05 27-3.1 25.9-1.15 23.48-0.38 21.05 0.4 17.1 0.4L17.1 0.4Q14.15 0.4 12.03 0.38 9.9 0.35 8.1 0.25 6.3 0.15 4.35 0L4.35 0 5.05-3.5Q6.15-3.45 9.22-3.4 12.3-3.35 16.4-3.35L16.4-3.35Q19.15-3.35 20.73-3.83 22.3-4.3 22.98-5.6 23.65-6.9 23.65-9.35L23.65-9.35Q23.65-12.05 22.95-13.5 22.25-14.95 20.6-15.55 18.95-16.15 16.1-16.2L16.1-16.2 5-16.2 5-19.55 16.05-19.55Q18.55-19.6 20.03-20.08 21.5-20.55 22.15-21.83 22.8-23.1 22.8-25.4L22.8-25.4Q22.8-27.75 22.1-29 21.4-30.25 19.78-30.7 18.15-31.15 15.35-31.15L15.35-31.15Q12.9-31.15 10.95-31.15 9-31.15 7.53-31.13 6.05-31.1 5.05-31L5.05-31 4.35-34.5Q6.1-34.7 7.68-34.77 9.25-34.85 11.13-34.88 13-34.9 15.55-34.9ZM4.35-34.5L8.65-34.5 8.65 0 4.35 0 4.35-34.5ZM34.95-35L39.2-35 39.15-6.7Q39.15-5.1 40.02-4.28 40.9-3.45 42.5-3.45L42.5-3.45 44.85-3.45 45.35-0.2Q44.9 0 44.07 0.15 43.25 0.3 42.37 0.38 41.5 0.45 40.9 0.45L40.9 0.45Q38.2 0.45 36.57-1.15 34.95-2.75 34.95-5.75L34.95-5.75 34.95-35ZM60.05-24.95L60.05-24.95Q64.25-24.95 66.77-23.7 69.3-22.45 70.39-19.63 71.5-16.8 71.5-12.15L71.5-12.15Q71.5-7.5 70.39-4.67 69.3-1.85 66.77-0.6 64.25 0.65 60.05 0.65L60.05 0.65Q55.89 0.65 53.37-0.6 50.84-1.85 49.72-4.67 48.59-7.5 48.59-12.15L48.59-12.15Q48.59-16.8 49.72-19.63 50.84-22.45 53.37-23.7 55.89-24.95 60.05-24.95ZM60.05-21.35L60.05-21.35Q57.39-21.35 55.87-20.53 54.34-19.7 53.7-17.7 53.05-15.7 53.05-12.15L53.05-12.15Q53.05-8.6 53.7-6.6 54.34-4.6 55.87-3.78 57.39-2.95 60.05-2.95L60.05-2.95Q62.7-2.95 64.25-3.78 65.8-4.6 66.44-6.6 67.09-8.6 67.09-12.15L67.09-12.15Q67.09-15.7 66.44-17.7 65.8-19.7 64.25-20.53 62.7-21.35 60.05-21.35ZM87.79-24.95L87.79-24.95Q91.69-24.95 93.97-24.15 96.24-23.35 97.22-21.65 98.19-19.95 98.19-17.2L98.19-17.2Q98.19-14.55 97.22-12.83 96.24-11.1 93.94-10.28 91.64-9.45 87.74-9.45L87.74-9.45Q83.84-9.45 81.57-10.28 79.29-11.1 78.32-12.8 77.34-14.5 77.34-17.15L77.34-17.15Q77.34-19.9 78.32-21.63 79.29-23.35 81.59-24.15 83.89-24.95 87.79-24.95ZM87.74-21.7L87.74-21.7Q84.09-21.7 82.67-20.68 81.24-19.65 81.24-17.2L81.24-17.2Q81.24-14.8 82.67-13.75 84.09-12.7 87.74-12.7L87.74-12.7Q91.44-12.7 92.84-13.75 94.24-14.8 94.24-17.2L94.24-17.2Q94.24-19.65 92.84-20.68 91.44-21.7 87.74-21.7ZM92.84-24.35L101.04-24.35 100.79-22 94.59-21.5 92.84-24.35ZM80.89-11.05L80.89-11.05 83.34-10.7Q82.49-9.95 82.19-8.88 81.89-7.8 82.37-6.9 82.84-6 84.39-5.75L84.39-5.75 93.49-4.3Q96.94-3.8 98.29-2.15 99.64-0.5 99.64 2.55L99.64 2.55Q99.64 5.4 98.57 7.05 97.49 8.7 94.94 9.4 92.39 10.1 88.04 10.1L88.04 10.1Q84.74 10.1 82.49 9.73 80.24 9.35 78.87 8.47 77.49 7.6 76.89 6.2 76.29 4.8 76.29 2.7L76.29 2.7Q76.29 1.1 76.77 0.03 77.24-1.05 78.27-1.9 79.29-2.75 80.94-3.55L80.94-3.55 83.94-5.2 85.89-4.5 83.44-2.65Q82.44-1.9 81.77-1.18 81.09-0.45 80.77 0.38 80.44 1.2 80.44 2.35L80.44 2.35Q80.44 4.05 81.09 4.95 81.74 5.85 83.39 6.18 85.04 6.5 87.99 6.5L87.99 6.5Q90.94 6.5 92.57 6.15 94.19 5.8 94.84 4.9 95.49 4 95.49 2.35L95.49 2.35Q95.49 1.1 95.17 0.45 94.84-0.2 93.94-0.55 93.04-0.9 91.29-1.15L91.29-1.15 82.54-2.35Q80.99-2.55 80.07-3.35 79.14-4.15 78.79-5.25 78.44-6.35 78.59-7.48 78.74-8.6 79.34-9.58 79.94-10.55 80.89-11.05Z" opacity="1" transform="matrix(1,0,0,1,0,0)" fill="black" class="undefined-tk-0"></path></svg></g><g><svg xmlns="http://www.w3.org/2000/svg" xmlns:xlink="http://www.w3.org/1999/xlink" version="1.1" x="113.9282" y="0" viewBox="11.017823632605122 11.461749422187646 37.96369815853941 37.06825057781236" style="enable-background:new 0 0 60 60;" xml:space="preserve" height="72.9718" width="74.73455979450753" class="icon-dxe-0" data-fill-palette-color="accent" id="SvgjsSvg7114"><path d="M48.85 34.1L35.82 11.92A0.945 0.945 0 0 0 34.2 11.92L30 19.08 25.79 11.93A0.945 0.945 0 0 0 24.17 11.93L11.15 34.1C10.93 34.47 10.99 34.93 11.29 35.23L24.32 48.26C24.5 48.44 24.74 48.53 24.98 48.53S25.46 48.44 25.64 48.26L30 43.91 34.35 48.26C34.53 48.44 34.77 48.53 35.01 48.53S35.49 48.44 35.67 48.26L48.7 35.23C49.01 34.93 49.07 34.46 48.85 34.1M24.99 46.28L13.13 34.42 24.99 14.24 28.92 20.92 21.17 34.1C20.95 34.47 21.01 34.93 21.31 35.23L28.67 42.59zM30 22.77L36.85 34.42 30 41.27 23.15 34.42zM35.01 46.28L31.32 42.59 38.68 35.23C38.98 34.93 39.04 34.46 38.82 34.1L31.08 20.93 35.01 14.25 46.87 34.43z" fill="black"></path></svg></g><g transform="matrix(1,0,0,1,205.89095979450752,9.3609)"><svg width="169.05" viewBox="4.35 -34.7 169.04 35.35" height="35.35" data-palette-color="url(#5ff48a5f-5731-4c27-b490-c98dde5ebfbc)"><path d="M4.35-34.5L8.75-34.5 8.75 0 4.35 0 4.35-34.5ZM8.35-20.35L25.2-20.35 25.2-16.55 8.35-16.55 8.35-20.35ZM24.65-34.5L29.05-34.5 29.05 0 24.65 0 24.65-34.5ZM47.6-24.95L47.6-24.95Q51.8-24.95 54.32-23.7 56.85-22.45 57.95-19.63 59.05-16.8 59.05-12.15L59.05-12.15Q59.05-7.5 57.95-4.67 56.85-1.85 54.32-0.6 51.8 0.65 47.6 0.65L47.6 0.65Q43.45 0.65 40.92-0.6 38.4-1.85 37.27-4.67 36.15-7.5 36.15-12.15L36.15-12.15Q36.15-16.8 37.27-19.63 38.4-22.45 40.92-23.7 43.45-24.95 47.6-24.95ZM47.6-21.35L47.6-21.35Q44.95-21.35 43.42-20.53 41.9-19.7 41.25-17.7 40.6-15.7 40.6-12.15L40.6-12.15Q40.6-8.6 41.25-6.6 41.9-4.6 43.42-3.78 44.95-2.95 47.6-2.95L47.6-2.95Q50.25-2.95 51.8-3.78 53.35-4.6 54-6.6 54.65-8.6 54.65-12.15L54.65-12.15Q54.65-15.7 54-17.7 53.35-19.7 51.8-20.53 50.25-21.35 47.6-21.35ZM65.7-24.35L69-24.35 69.55-19.7 69.95-18.95 69.95 0 65.7 0 65.7-24.35ZM79.84-24.95L80.95-24.95 80.45-20.95 79.05-20.95Q76.9-20.95 74.75-20.08 72.59-19.2 69.5-17.6L69.5-17.6 69.14-20.25Q71.84-22.45 74.57-23.7 77.3-24.95 79.84-24.95L79.84-24.95ZM85.94-24.35L90.14-24.35 90.14 0 85.94 0 85.94-24.35ZM87.04-34.7L89.04-34.7Q90.34-34.7 90.34-33.4L90.34-33.4 90.34-30.55Q90.34-29.25 89.04-29.25L89.04-29.25 87.04-29.25Q85.74-29.25 85.74-30.55L85.74-30.55 85.74-33.4Q85.74-34.7 87.04-34.7L87.04-34.7ZM96.69-3.45L112.39-20.9 117.14-20.85 101.44-3.4 96.69-3.45ZM96.69-3.45L117.29-3.45 117.29 0 96.69 0 96.69-3.45ZM96.84-24.35L117.14-24.35 117.14-20.85 96.84-20.85 96.84-24.35ZM133.89-24.95L133.89-24.95Q138.09-24.95 140.61-23.7 143.14-22.45 144.24-19.63 145.34-16.8 145.34-12.15L145.34-12.15Q145.34-7.5 144.24-4.67 143.14-1.85 140.61-0.6 138.09 0.65 133.89 0.65L133.89 0.65Q129.74 0.65 127.21-0.6 124.69-1.85 123.56-4.67 122.44-7.5 122.44-12.15L122.44-12.15Q122.44-16.8 123.56-19.63 124.69-22.45 127.21-23.7 129.74-24.95 133.89-24.95ZM133.89-21.35L133.89-21.35Q131.24-21.35 129.71-20.53 128.19-19.7 127.54-17.7 126.89-15.7 126.89-12.15L126.89-12.15Q126.89-8.6 127.54-6.6 128.19-4.6 129.71-3.78 131.24-2.95 133.89-2.95L133.89-2.95Q136.54-2.95 138.09-3.78 139.64-4.6 140.29-6.6 140.94-8.6 140.94-12.15L140.94-12.15Q140.94-15.7 140.29-17.7 139.64-19.7 138.09-20.53 136.54-21.35 133.89-21.35ZM166.78-24.95L166.78-24.95Q173.39-24.95 173.39-18.25L173.39-18.25 173.39 0 169.14 0 169.14-17.05Q169.14-19.5 168.34-20.43 167.54-21.35 165.64-21.35L165.64-21.35Q163.39-21.35 161.14-20.25 158.89-19.15 155.78-17.25L155.78-17.25 155.59-20.3Q158.44-22.5 161.24-23.73 164.03-24.95 166.78-24.95ZM151.99-24.35L155.59-24.35 155.94-19.7 156.24-18.95 156.24 0 151.99 0 151.99-24.35Z" opacity="1" transform="matrix(1,0,0,1,0,0)" fill="black" class="undefined-tk-1"></path></svg></g></svg></g></svg></g></svg></g></svg></g><g></g></svg></g><defs><mask></mask></defs></svg><rect width="374.94095979450753" height="72.9718" fill="black" stroke="none" visibility="hidden"></rect></g></mask></svg><rect width="374.94095979450753" height="72.9718" fill="black" stroke="none" visibility="hidden"></rect></g></mask></svg><rect width="374.94095979450753" height="72.9718" fill="black" stroke="none" visibility="hidden"></rect></g></mask><linearGradient x1="0" x2="1" y1="0.548" y2="0.55" id="e63137df-69af-4ce2-8d0c-589b32c5be00"><stop stop-color="#ff6cab" offset="0"></stop><stop stop-color="#7366ff" offset="1"></stop></linearGradient><rect width="374.94095979450753" height="72.9718" fill="url(#e63137df-69af-4ce2-8d0c-589b32c5be00)" mask="url(#89f61c8b-0bfb-4ef2-825f-ff9d7c142e16)" data-fill-palette-color="accent"></rect></svg><rect width="374.94095979450753" height="72.9718" fill="none" stroke="none" visibility="hidden"></rect></g></svg></g></svg>